<?xml version="1.0" encoding="UTF-8" standalone="no"?>
<svg
   width="689.4137"
   height="134"
   id="screenshot-5ba538d5-503e-806d-8004-5787769335ea"
   fill="none"
   version="1.1"
   sodipodi:docname="logo-color.svg"
   inkscape:version="1.3.2 (091e20e, 2023-11-25)"
   xmlns:inkscape="http://www.inkscape.org/namespaces/inkscape"
   xmlns:sodipodi="http://sodipodi.sourceforge.net/DTD/sodipodi-0.dtd"
   xmlns="http://www.w3.org/2000/svg"
   xmlns:svg="http://www.w3.org/2000/svg">
  <defs
     id="defs5" />
  <sodipodi:namedview
     id="namedview4"
     pagecolor="#ffffff"
     bordercolor="#000000"
     borderopacity="0.25"
     inkscape:showpageshadow="2"
     inkscape:pageopacity="0.0"
     inkscape:pagecheckerboard="0"
     inkscape:deskcolor="#d1d1d1"
     inkscape:zoom="0.71037142"
     inkscape:cx="228.75357"
     inkscape:cy="168.22186"
     inkscape:window-width="1856"
     inkscape:window-height="1056"
     inkscape:window-x="2387"
     inkscape:window-y="78"
     inkscape:window-maximized="0"
     inkscape:current-layer="shape-5ba538d5-503e-806d-8004-5787769335ee" />
  <style
     id="style1">@font-face{font-family:'Poppins';font-style:normal;font-weight:200;font-display:block;src:url(https://design.penpot.app/internal/gfonts/font/poppins/v21/pxiByp8kv8JHgFVrLFj_Z1JlFc-K.woff2) format('woff2');unicode-range:U+0100-02AF, U+0304, U+0308, U+0329, U+1E00-1E9F, U+1EF2-1EFF, U+2020, U+20A0-20AB, U+20AD-20C0, U+2113, U+2C60-2C7F, U+A720-A7FF}@font-face{font-family:'Poppins';font-style:normal;font-weight:200;font-display:block;src:url(https://design.penpot.app/internal/gfonts/font/poppins/v21/pxiByp8kv8JHgFVrLFj_Z1xlFQ.woff2) format('woff2');unicode-range:U+0000-00FF, U+0131, U+0152-0153, U+02BB-02BC, U+02C6, U+02DA, U+02DC, U+0304, U+0308, U+0329, U+2000-206F, U+2074, U+20AC, U+2122, U+2191, U+2193, U+2212, U+2215, U+FEFF, U+FFFD}@font-face{font-family:'Poppins';font-style:normal;font-weight:500;font-display:block;src:url(https://design.penpot.app/internal/gfonts/font/poppins/v21/pxiByp8kv8JHgFVrLGT9Z1JlFc-K.woff2) format('woff2');unicode-range:U+0100-02AF, U+0304, U+0308, U+0329, U+1E00-1E9F, U+1EF2-1EFF, U+2020, U+20A0-20AB, U+20AD-20C0, U+2113, U+2C60-2C7F, U+A720-A7FF}@font-face{font-family:'Poppins';font-style:normal;font-weight:500;font-display:block;src:url(https://design.penpot.app/internal/gfonts/font/poppins/v21/pxiByp8kv8JHgFVrLGT9Z1xlFQ.woff2) format('woff2');unicode-range:U+0000-00FF, U+0131, U+0152-0153, U+02BB-02BC, U+02C6, U+02DA, U+02DC, U+0304, U+0308, U+0329, U+2000-206F, U+2074, U+20AC, U+2122, U+2191, U+2193, U+2212, U+2215, U+FEFF, U+FFFD}</style>
  <g
     id="shape-5ba538d5-503e-806d-8004-5787769335ea"
     transform="translate(-9.389178)">
    <g
       class="text-container"
       id="shape-5ba538d5-503e-806d-8004-5787769335ec">
      <defs
         id="defs2">
        <pattern
           patternUnits="userSpaceOnUse"
           x="185.192"
           y="28.5"
           width="422.683"
           height="83.9"
           id="fill-0-render-6-0">
          <rect
             width="422.683"
             height="83.9"
             style="fill: rgb(0, 86, 105); fill-opacity: 1;"
             id="rect1" />
        </pattern>
        <pattern
           patternUnits="userSpaceOnUse"
           x="185.192"
           y="28.5"
           width="422.683"
           height="83.9"
           id="fill-1-render-6-0">
          <rect
             width="422.683"
             height="83.9"
             style="fill: rgb(0, 86, 105); fill-opacity: 1;"
             id="rect2" />
        </pattern>
      </defs>
      <defs
         id="defs4">
        <pattern
           patternUnits="userSpaceOnUse"
           x="185.192"
           y="28.5"
           width="422.683"
           height="83.9"
           id="fill-0-render-6-1">
          <rect
             width="422.683"
             height="83.9"
             style="fill: rgb(0, 86, 105); fill-opacity: 1;"
             id="rect3" />
        </pattern>
        <pattern
           patternUnits="userSpaceOnUse"
           x="185.192"
           y="28.5"
           width="422.683"
           height="83.9"
           id="fill-1-render-6-1">
          <rect
             width="422.683"
             height="83.9"
             style="fill: rgb(0, 86, 105); fill-opacity: 1;"
             id="rect4" />
        </pattern>
      </defs>
      <g
         id="g5"
         transform="translate(9.389178)">
        <g
           id="shape-5ba538d5-503e-806d-8004-5787769335eb">
          <g
             id="shape-5ba538d5-503e-806d-8004-5787769335ed">
            <rect
               rx="19.395"
               ry="19.395"
               width="105.824"
               height="38.789001"
               style="fill:#005669;fill-opacity:1"
               class="fills"
               id="fills-5ba538d5-503e-806d-8004-5787769335ed"
               x="0"
               y="0" />
          </g>
          <g
             id="shape-5ba538d5-503e-806d-8004-5787769335ee">
            <rect
               rx="19.395"
               ry="19.395"
               x="21.165001"
               y="47.605"
               width="123.462"
               height="38.789001"
               style="fill:#b6174b;fill-opacity:1"
               class="fills"
               id="fills-5ba538d5-503e-806d-8004-5787769335ee" />
          </g>
          <g
             id="shape-5ba538d5-503e-806d-8004-5787769335ef">
            <rect
               rx="19.395"
               ry="19.395"
               y="95.210999"
               width="123.462"
               height="38.789001"
               style="fill:#005669;fill-opacity:1"
               class="fills"
               id="fills-5ba538d5-503e-806d-8004-5787769335ef"
               x="0" />
          </g>
        </g>
        <g
           id="g1"
           transform="translate(5.9724259,1.5860661)">
          <path
             style="font-weight:300;font-size:28px;font-family:Poppins;-inkscape-font-specification:'Poppins Light';dominant-baseline:ideographic;white-space:pre;fill:#005669;stroke-width:1.19462"
             d="m 195.5182,46.347652 c 0,2.809745 -1.97474,4.515661 -5.2989,4.515661 h -5.4964 v -9.13167 h 5.39765 c 3.29125,0 5.39765,1.806265 5.39765,4.616009 z m -0.55951,-10.770687 c 0,2.609048 -1.74436,4.214617 -4.87105,4.214617 h -5.36474 v -8.362335 h 5.266 c 3.32416,0 4.96979,1.639017 4.96979,4.147718 z m 2.86339,11.004833 c 0,-2.943542 -2.07349,-5.351895 -4.64066,-5.820185 2.20513,-0.635538 4.11406,-2.341454 4.11406,-5.418794 0,-3.278035 -2.30388,-5.887084 -7.14202,-5.887084 h -7.73443 v 23.381089 h 7.96483 c 4.83813,0 7.43822,-2.742845 7.43822,-6.255026 z m 3.19251,-2.910093 c 0,5.719837 3.65329,9.432714 8.55725,9.432714 3.58746,0 6.08881,-1.973511 7.14201,-4.314965 v 4.04737 h 2.30387 V 34.573485 h -2.30387 v 4.01392 c -1.02029,-2.308004 -3.48872,-4.281515 -7.1091,-4.281515 -4.93687,0 -8.59016,3.645978 -8.59016,9.365815 z m 15.69926,0.03345 c 0,4.549111 -2.99504,7.358855 -6.68123,7.358855 -3.78494,0 -6.68124,-2.776295 -6.68124,-7.392304 0,-4.649458 2.8963,-7.325405 6.68124,-7.325405 3.68619,0 6.68123,2.809744 6.68123,7.358854 z m 20.01077,-9.131669 -5.92425,15.587392 -6.12173,-15.587392 h -2.53425 l 7.37239,18.162991 -3.48872,8.696829 h 2.4026 l 10.66365,-26.85982 z m 13.165,1.739365 c 3.32416,0 6.35212,2.140758 6.25337,6.388824 H 243.5046 c 0.26329,-4.248066 3.12669,-6.388824 6.38502,-6.388824 z m 8.32686,10.737239 h -2.43552 c -0.65826,2.441801 -2.73174,4.080819 -5.7926,4.080819 -3.35707,0 -6.28629,-2.241106 -6.48376,-6.522621 h 14.90936 c 0.0658,-0.635538 0.0658,-1.103829 0.0658,-1.839714 0,-4.649458 -3.22542,-8.462683 -8.49142,-8.462683 -5.16727,0 -8.82055,3.579079 -8.82055,9.399264 0,5.786736 3.71911,9.399265 8.82055,9.399265 4.50901,0 7.40531,-2.609048 8.22812,-6.05433 z m 6.77996,-4.415313 c 0,-4.58256 2.53427,-5.953983 5.5293,-5.953983 h 0.62533 v -2.441802 c -3.09376,0 -5.16725,1.337974 -6.15463,3.57908 v -3.244587 h -2.30387 v 18.263339 h 2.30387 z m 9.61044,-8.061291 v 18.263339 h 2.30387 v -18.26334 z m 1.15194,-3.445283 c 0.92155,0 1.67853,-0.735885 1.67853,-1.739365 0,-1.00348 -0.75698,-1.705917 -1.67853,-1.705917 -0.92156,0 -1.67854,0.702437 -1.67854,1.705917 0,1.00348 0.75698,1.739365 1.67854,1.739365 z m 12.57256,21.976217 c 3.71912,0 6.25338,-2.174207 6.25338,-5.117749 -0.0988,-6.455723 -10.72947,-3.813225 -10.72947,-8.763727 0,-1.605568 1.51398,-2.910093 3.91658,-2.910093 2.73174,0 4.2128,1.53867 4.34445,3.57908 h 2.30388 c -0.19748,-3.512181 -2.73174,-5.58604 -6.5825,-5.58604 -3.78494,0 -6.31919,2.241106 -6.31919,4.950502 0,6.857115 10.79529,4.214617 10.79529,8.730278 0,1.739366 -1.44815,3.144238 -4.01533,3.144238 -2.9292,0 -4.64065,-1.438322 -4.83813,-3.445282 h -2.3697 c 0.29621,3.344934 3.1596,5.418793 7.24074,5.418793 z m 9.54464,-9.399265 c 0,5.786736 3.65329,9.399265 8.72181,9.399265 4.50901,0 7.43823,-2.575599 8.26103,-6.221577 h -2.46843 c -0.62533,2.675947 -2.76465,4.248066 -5.7926,4.248066 -3.52164,0 -6.38502,-2.475251 -6.38502,-7.425754 0,-4.950502 2.86338,-7.392304 6.38502,-7.392304 3.02795,0 5.20018,1.605569 5.7926,4.214617 h 2.46843 c -0.8228,-3.779775 -3.75202,-6.221577 -8.26103,-6.221577 -5.06852,0 -8.72181,3.612529 -8.72181,9.399264 z m 21.22859,-15.620842 v 24.752512 h 2.30387 v -9.967903 c 0,-4.448762 2.33678,-6.58952 5.69387,-6.58952 3.29125,0 5.46347,2.073859 5.46347,6.121229 v 10.436194 h 2.27096 v -10.70379 c 0,-5.351894 -3.19251,-7.894044 -7.17492,-7.894044 -2.73175,0 -5.10144,1.204176 -6.25338,3.445282 v -9.599961 z m 28.5022,8.228538 c 3.32416,0 6.35211,2.140758 6.25337,6.388824 h -12.6384 c 0.26331,-4.248066 3.12669,-6.388824 6.38503,-6.388824 z m 8.32686,10.737239 h -2.43553 c -0.65824,2.441801 -2.73173,4.080819 -5.7926,4.080819 -3.35707,0 -6.28628,-2.241106 -6.48376,-6.522621 h 14.90936 c 0.0658,-0.635538 0.0658,-1.103829 0.0658,-1.839714 0,-4.649458 -3.22543,-8.462683 -8.49143,-8.462683 -5.16725,0 -8.82054,3.579079 -8.82054,9.399264 0,5.786736 3.71911,9.399265 8.82054,9.399265 4.50902,0 7.40531,-2.609048 8.22813,-6.05433 z m 6.77997,-4.415313 c 0,-4.58256 2.53425,-5.953983 5.52929,-5.953983 h 0.62534 v -2.441802 c -3.09378,0 -5.16727,1.337974 -6.15463,3.57908 v -3.244587 h -2.30388 v 18.263339 h 2.30388 z"
             id="fills-5ba538d5-503e-806d-8004-5787769335ec"
             class="fills"
             aria-label="Bayerischer" />
          <path
             d="m 187.91366,72.868519 h -4.90237 V 102.7579 h 15.00815 v -3.956586 h -10.10578 z m 12.55699,17.933625 c 0,7.31107 4.94537,12.342816 11.09486,12.342816 3.9563,0 6.79453,-1.89229 8.29964,-3.913583 v 3.526523 h 4.94539 V 79.061425 h -4.94539 v 3.440504 c -1.46211,-1.935284 -4.21432,-3.827561 -8.21363,-3.827561 -6.2355,0 -11.18087,4.816705 -11.18087,12.127776 z m 19.3945,0.08601 c 0,5.117749 -3.48327,7.999171 -7.18155,7.999171 -3.65529,0 -7.18156,-2.967434 -7.18156,-8.085183 0,-5.117749 3.52627,-7.870152 7.18156,-7.870152 3.69828,0 7.18155,2.881421 7.18155,7.956164 z m 28.21017,-1.376201 V 102.7579 h 4.85938 V 88.780848 c 0,-6.62297 -4.17133,-10.10648 -9.71876,-10.10648 -2.83822,0 -5.46142,1.16117 -7.05254,3.096454 v -2.709397 h -4.90238 V 102.7579 h 4.90238 V 89.511955 c 0,-4.343636 2.36518,-6.579963 5.97746,-6.579963 3.56928,0 5.93446,2.236327 5.93446,6.579963 z m 9.46074,1.290189 c 0,7.31107 4.94539,12.342818 11.18087,12.342818 3.8703,0 6.70852,-1.80628 8.21364,-3.956591 v 3.569531 h 4.94538 V 70.933235 h -4.94538 V 82.37291 c -1.80614,-2.236328 -5.07439,-3.698542 -8.17063,-3.698542 -6.27849,0 -11.22388,4.816705 -11.22388,12.127776 z m 19.39451,0.08601 c 0,5.117749 -3.48327,7.999171 -7.18156,7.999171 -3.65528,0 -7.18156,-2.967434 -7.18156,-8.085183 0,-5.117749 3.52628,-7.870152 7.18156,-7.870152 3.69829,0 7.18156,2.881421 7.18156,7.956164 z m 21.37262,-8.085183 c 3.65529,0 6.53652,2.32234 6.62252,5.977875 H 291.8097 c 0.51604,-3.741548 3.18225,-5.977875 6.49349,-5.977875 z m 11.09488,12.901888 h -5.28942 c -0.90307,1.849271 -2.5802,3.311485 -5.59044,3.311485 -3.61227,0 -6.40749,-2.365346 -6.75152,-6.278919 h 18.10441 c 0.12901,-0.81712 0.17201,-1.591233 0.17201,-2.408353 0,-6.967019 -4.77337,-11.654706 -11.5249,-11.654706 -7.00953,0 -11.82591,4.773699 -11.82591,12.213788 0,7.440089 5.03139,12.256808 11.82591,12.256808 5.80546,0 9.54674,-3.311498 10.87986,-7.440103 z m 14.06211,7.440103 c 5.59044,0 9.07371,-3.01045 9.07371,-7.01004 -0.25803,-8.558253 -13.63207,-5.891862 -13.63207,-10.665561 0,-1.591233 1.37611,-2.66639 3.99931,-2.66639 2.66622,0 4.25734,1.419207 4.42935,3.48351 h 4.90238 c -0.25802,-4.730693 -3.7843,-7.612115 -9.15971,-7.612115 -5.59044,0 -9.1167,3.053447 -9.1167,6.838001 0,8.687272 13.76106,6.020882 13.76106,10.665561 0,1.63424 -1.50512,2.838416 -4.34334,2.838416 -2.70921,0 -4.55835,-1.591233 -4.73036,-3.526516 h -5.0744 c 0.21502,4.300629 4.21433,7.655134 9.89077,7.655134 z m 22.9638,0 c 5.59042,0 9.07369,-3.01045 9.07369,-7.01004 -0.25801,-8.558253 -13.63205,-5.891862 -13.63205,-10.665561 0,-1.591233 1.37611,-2.66639 3.99931,-2.66639 2.6662,0 4.25733,1.419207 4.42934,3.48351 h 4.90238 c -0.25801,-4.730693 -3.78429,-7.612115 -9.15971,-7.612115 -5.59043,0 -9.11671,3.053447 -9.11671,6.838001 0,8.687272 13.76107,6.020882 13.76107,10.665561 0,1.63424 -1.50511,2.838416 -4.34334,2.838416 -2.7092,0 -4.55835,-1.591233 -4.73037,-3.526516 h -5.07439 c 0.21502,4.300629 4.21433,7.655134 9.89078,7.655134 z m 15.1372,-29.975401 v 5.891862 h -2.79522 v 3.999586 h 2.79522 v 13.116919 c 0,4.816704 2.6232,6.579974 6.83752,6.579974 h 3.8703 v -4.085608 h -3.01023 c -2.06416,0 -2.75221,-0.731107 -2.75221,-2.494366 V 83.061011 h 5.76244 v -3.999586 h -5.76244 V 73.169563 Z M 398.243,102.7579 V 79.061425 h -4.90237 v 13.202933 c 0,4.343635 -2.36519,6.579963 -5.97747,6.579963 -3.56927,0 -5.93446,-2.236328 -5.93446,-6.579963 V 79.061425 h -4.85938 v 13.93404 c 0,6.622969 4.21433,10.106485 9.76176,10.106485 2.79522,0 5.46143,-1.16118 7.00955,-3.182472 v 2.838422 z m 4.81639,-11.95576 c 0,7.31107 4.94538,12.34282 11.18087,12.34282 3.87029,0 6.70851,-1.80628 8.21363,-3.956593 v 3.569533 h 4.94539 V 70.933235 h -4.94539 V 82.37291 c -1.80614,-2.236328 -5.07439,-3.698542 -8.17064,-3.698542 -6.27848,0 -11.22386,4.816705 -11.22386,12.127776 z m 19.3945,0.08601 c 0,5.117749 -3.48327,7.999171 -7.18155,7.999171 -3.65529,0 -7.18156,-2.967434 -7.18156,-8.085183 0,-5.117749 3.52627,-7.870152 7.18156,-7.870152 3.69828,0 7.18155,2.881421 7.18155,7.956164 z M 433.84977,79.061425 V 102.7579 h 4.90238 V 79.061425 Z m 2.49418,-3.139459 c 1.72013,0 3.09625,-1.376202 3.09625,-3.13946 0,-1.763258 -1.37612,-3.139459 -3.09625,-3.139459 -1.76312,0 -3.13924,1.376201 -3.13924,3.139459 0,1.763258 1.37612,3.13946 3.13924,3.13946 z m 18.83546,6.881007 c 3.65528,0 6.53651,2.32234 6.62251,5.977875 h -13.11601 c 0.51604,-3.741548 3.18225,-5.977875 6.4935,-5.977875 z m 11.09487,12.901888 h -5.28942 c -0.90307,1.849271 -2.5802,3.311485 -5.59043,3.311485 -3.61228,0 -6.4075,-2.365346 -6.75153,-6.278919 h 18.10441 c 0.12901,-0.81712 0.17201,-1.591233 0.17201,-2.408353 0,-6.967019 -4.77337,-11.654706 -11.52489,-11.654706 -7.00954,0 -11.82592,4.773699 -11.82592,12.213788 0,7.440089 5.03139,12.256804 11.82592,12.256804 5.80545,0 9.54674,-3.311494 10.87985,-7.440099 z m 10.36382,-5.418793 c 0,-5.031736 2.23617,-6.536957 5.84846,-6.536957 h 1.24709 v -5.074743 c -3.35425,0 -5.71944,1.462214 -7.09555,3.827561 v -3.440504 h -4.90238 V 102.7579 h 4.90238 z m 21.58771,-7.483095 c 3.65528,0 6.53651,2.32234 6.62251,5.977875 h -13.11601 c 0.51604,-3.741548 3.18224,-5.977875 6.4935,-5.977875 z m 11.09487,12.901888 h -5.28942 c -0.90307,1.849271 -2.5802,3.311485 -5.59044,3.311485 -3.61227,0 -6.40749,-2.365346 -6.75152,-6.278919 h 18.10441 c 0.12901,-0.81712 0.17201,-1.591233 0.17201,-2.408353 0,-6.967019 -4.77337,-11.654706 -11.5249,-11.654706 -7.00953,0 -11.82591,4.773699 -11.82591,12.213788 0,7.440089 5.03139,12.256804 11.82591,12.256804 5.80546,0 9.54675,-3.311494 10.87986,-7.440099 z m 22.27575,-6.192906 V 102.7579 h 4.85938 V 88.780848 c 0,-6.62297 -4.17133,-10.10648 -9.71875,-10.10648 -2.83823,0 -5.46143,1.16117 -7.05256,3.096454 v -2.709397 h -4.90238 V 102.7579 h 4.90238 V 89.511955 c 0,-4.343636 2.36519,-6.579963 5.97747,-6.579963 3.56927,0 5.93446,2.236327 5.93446,6.579963 z m 9.46073,1.290189 c 0,7.31107 4.94539,12.342816 11.18087,12.342816 3.87031,0 6.70852,-1.80627 8.21364,-3.956589 v 3.569529 h 4.94538 V 70.933235 h -4.94538 V 82.37291 c -1.80614,-2.236328 -5.07439,-3.698542 -8.17063,-3.698542 -6.27849,0 -11.22388,4.816705 -11.22388,12.127776 z m 19.39451,0.08601 c 0,5.117749 -3.48327,7.999171 -7.18156,7.999171 -3.65528,0 -7.18156,-2.967434 -7.18156,-8.085183 0,-5.117749 3.52628,-7.870152 7.18156,-7.870152 3.69829,0 7.18156,2.881421 7.18156,7.956164 z m 21.37265,-8.085183 c 3.65528,0 6.5365,2.32234 6.62252,5.977875 h -13.11603 c 0.51604,-3.741548 3.18225,-5.977875 6.49351,-5.977875 z m 11.09486,12.901888 h -5.28942 c -0.90307,1.849271 -2.58019,3.311485 -5.59043,3.311485 -3.61228,0 -6.4075,-2.365346 -6.75152,-6.278919 h 18.1044 c 0.12901,-0.81712 0.17202,-1.591233 0.17202,-2.408353 0,-6.967019 -4.77337,-11.654706 -11.5249,-11.654706 -7.00954,0 -11.82592,4.773699 -11.82592,12.213788 0,7.440089 5.0314,12.256806 11.82592,12.256806 5.80545,0 9.54674,-3.311496 10.87985,-7.440101 z m 22.27573,-6.192906 V 102.7579 h 4.85938 V 88.780848 c 0,-6.62297 -4.17133,-10.10648 -9.71876,-10.10648 -2.83821,0 -5.46141,1.16117 -7.05254,3.096454 v -2.709397 h -4.90238 V 102.7579 h 4.90238 V 89.511955 c 0,-4.343636 2.36518,-6.579963 5.97746,-6.579963 3.56928,0 5.93446,2.236327 5.93446,6.579963 z m 15.99724,0.774113 c 0,-5.031736 2.23619,-6.536957 5.84847,-6.536957 h 1.24709 v -5.074743 c -3.35426,0 -5.71944,1.462214 -7.09556,3.827561 v -3.440502 h -4.90237 V 102.7579 h 4.90237 z m 9.97683,0.516076 c 0,7.31107 4.94539,12.342818 11.09486,12.342818 3.9563,0 6.79453,-1.89229 8.29964,-3.913585 v 3.526525 h 4.94539 V 79.061425 h -4.94539 v 3.440504 c -1.4621,-1.935284 -4.21432,-3.827561 -8.21363,-3.827561 -6.23548,0 -11.18087,4.816705 -11.18087,12.127776 z m 19.3945,0.08601 c 0,5.117749 -3.48327,7.999171 -7.18155,7.999171 -3.65528,0 -7.18156,-2.967434 -7.18156,-8.085183 0,-5.117749 3.52628,-7.870152 7.18156,-7.870152 3.69828,0 7.18155,2.881421 7.18155,7.956164 z m 12.16994,-17.718593 v 5.891862 h -2.79522 v 3.999586 h 2.79522 v 13.116919 c 0,4.816704 2.6232,6.579974 6.83753,6.579974 h 3.8703 v -4.085608 h -3.01023 c -2.06416,0 -2.75222,-0.731107 -2.75222,-2.494366 V 83.061011 h 5.76245 v -3.999586 h -5.76245 v -5.891862 z"
             id="text4"
             style="font-weight:500;font-size:36px;font-family:Poppins;dominant-baseline:ideographic;white-space:pre;fill:#005669;stroke-width:1.19462"
             class="fills"
             aria-label="Landesstudierendenrat" />
        </g>
      </g>
    </g>
  </g>
</svg>
